<svg id="Layer_1" data-name="Layer 1" xmlns="http://www.w3.org/2000/svg" viewBox="0 0 105.89 73.74"><defs><style>.cls-1{fill:#0067a5;}.cls-2{fill:#221f20;}.cls-3{fill:#f4c269;}.cls-4{fill:#fff;}.cls-5{fill:#fee899;}</style></defs><path class="cls-1" d="M39.75,916S42,903.42,58.81,904.78c0,0,13.87,1.76,17.1.46,0,0,5.63-2.4,5.52-7,0,0,9.25,6.16,6.43,18.9,0,0,10.15,5.64,9.88,16.33,0,0,1.14,10.58-6.93,17.16,0,0-.26.86,1.13.73,0,0,4.58-.62,5.12-2.28,0,0,2.59,11.51-10.3,19,0,0-12.74,5.53-30.12-3.91,0,0-16.54,8-29.26,1.9,0,0-12.28-5.71-5.86-19.08,0,0,1.87-3.41,4.32-4.56,0,0-9.17-6.76-5.33-17.51,0,0,7.53-15.91,19.24-9" transform="translate(7.6 -897.79)"/><path class="cls-2" d="M76.9,970.28a42.69,42.69,0,0,1-20.28-5.47,48.25,48.25,0,0,1-18.26,4.13,25.81,25.81,0,0,1-11.2-2.34,15.12,15.12,0,0,1-7.28-8c-1.27-3.54-.87-7.51,1.19-11.78A13.66,13.66,0,0,1,25,942.43c-2-1.78-8.24-8.27-4.92-17.6.24-.49,5.35-11.08,13.88-11.08a11.73,11.73,0,0,1,5.52,1.48c.74-2.5,4.19-11.06,16.91-11.06.8,0,1.65,0,2.51.1a125.45,125.45,0,0,0,12.6.94,12.89,12.89,0,0,0,4.27-.44s5.31-2.32,5.2-6.46a.51.51,0,0,1,.79-.44c.09.06,9.34,6.38,6.72,19.07,1.76,1.11,10.06,6.83,9.81,16.59,0,.05,1.06,10.65-6.87,17.35a1.44,1.44,0,0,0,.52,0c1.75-.24,4.39-1,4.69-1.93a.5.5,0,0,1,.51-.35.5.5,0,0,1,.47.39c0,.12,2.51,12-10.55,19.58A27,27,0,0,1,76.9,970.28Zm-20.26-6.54a.5.5,0,0,1,.24.06,41.74,41.74,0,0,0,20,5.46,26.61,26.61,0,0,0,9.66-1.57c10.21-6,10.45-14.37,10.17-17.35A11.9,11.9,0,0,1,92,951.91l-.34,0a1.4,1.4,0,0,1-1.19-.48,1,1,0,0,1-.16-.9.54.54,0,0,1,.16-.26c7.78-6.34,6.77-16.61,6.76-16.71.25-10.32-9.53-15.89-9.63-16a.52.52,0,0,1-.25-.55c2.25-10.14-3.41-16-5.48-17.8-.61,4.18-5.55,6.33-5.77,6.42a14.07,14.07,0,0,1-4.66.52,126.3,126.3,0,0,1-12.71-.94c-.8-.06-1.62-.1-2.4-.1-14,0-16.07,10.79-16.09,10.9a.51.51,0,0,1-.28.37.52.52,0,0,1-.47,0,11,11,0,0,0-5.59-1.67C26,914.76,21,925.11,21,925.22c-3.64,10.21,4.81,16.62,5.18,16.89a.51.51,0,0,1,.2.46.51.51,0,0,1-.29.4C23.78,944,22,947.28,22,947.32c-1.92,4-2.3,7.7-1.13,11a14.37,14.37,0,0,0,6.77,7.39,24.81,24.81,0,0,0,10.76,2.24,47.38,47.38,0,0,0,18.06-4.14A.54.54,0,0,1,56.64,963.74Z" transform="translate(7.6 -897.79)"/><path class="cls-3" d="M72.69,927s6.4,4.93,9.47,8.49c0,0,2.79-2.6,2-5.84,0,0-2.35-5.46-7.75-5A5.08,5.08,0,0,0,72.69,927" transform="translate(7.6 -897.79)"/><path class="cls-2" d="M82.16,936h0a.48.48,0,0,1-.35-.18,83.27,83.27,0,0,0-9.4-8.42.51.51,0,0,1-.1-.7,5.57,5.57,0,0,1,4.14-2.55,6.4,6.4,0,0,1,.64,0c5.21,0,7.48,5.12,7.58,5.33a.29.29,0,0,1,0,.09c.84,3.48-2,6.21-2.16,6.33A.51.51,0,0,1,82.16,936Zm-8.76-9.09a82.65,82.65,0,0,1,8.77,7.83,5.89,5.89,0,0,0,1.52-4.92c-.22-.46-2.49-5-7.23-4.66A4.37,4.37,0,0,0,73.4,926.89Z" transform="translate(7.6 -897.79)"/><path class="cls-2" d="M81.69,929.54a.46.46,0,0,1-.23-.06,6.92,6.92,0,0,0-5.63,0,.51.51,0,1,1-.44-.91,7.78,7.78,0,0,1,6.53,0,.5.5,0,0,1,.22.68A.51.51,0,0,1,81.69,929.54Z" transform="translate(7.6 -897.79)"/><path class="cls-3" d="M40.76,923.71s-6.58,4.7-9.78,8.14c0,0-2.69-2.7-1.79-5.9,0,0,2.55-5.37,7.92-4.72a5.07,5.07,0,0,1,3.65,2.48" transform="translate(7.6 -897.79)"/><path class="cls-2" d="M31,932.36h0a.5.5,0,0,1-.37-.17c-.11-.13-2.77-3.23-1.8-6.2a7.27,7.27,0,0,1,7.11-5.34,9.07,9.07,0,0,1,1.26.08h0a5.49,5.49,0,0,1,4,2.7.5.5,0,0,1-.12.69c-.07,0-6.57,4.71-9.7,8.08A.51.51,0,0,1,31,932.36Zm4.93-10.7a6.21,6.21,0,0,0-6.15,4.64c-.6,1.85.63,3.9,1.26,4.78a83.08,83.08,0,0,1,9-7.48,4.34,4.34,0,0,0-3-1.86A8.35,8.35,0,0,0,35.91,921.66Z" transform="translate(7.6 -897.79)"/><path class="cls-2" d="M37.76,926.13a.46.46,0,0,1-.23,0,6.86,6.86,0,0,0-5.62-.19.51.51,0,1,1-.44-.91,7.78,7.78,0,0,1,6.53.2.51.51,0,0,1,.21.69A.49.49,0,0,1,37.76,926.13Z" transform="translate(7.6 -897.79)"/><path class="cls-3" d="M42.57,927.11s-12.28,7.23-12.79,24.4c0,0-.5,14.38,12.63,17.87,0,0,33.51,8.93,36.82-14.92a27.19,27.19,0,0,0-10.07-25.1S56.49,920,42.57,927.11" transform="translate(7.6 -897.79)"/><path class="cls-4" d="M53.59,953.39A4.52,4.52,0,0,0,49.87,955a4.21,4.21,0,0,0-3.38-2,4,4,0,1,0-.43,8,4.24,4.24,0,0,0,3.41-1.42,4.53,4.53,0,0,0,3.67,2.2,4.21,4.21,0,1,0,.45-8.4Z" transform="translate(7.6 -897.79)"/><path class="cls-2" d="M46.16,948.33a1.66,1.66,0,1,1-1.58-1.74,1.66,1.66,0,0,1,1.58,1.74" transform="translate(7.6 -897.79)"/><path class="cls-2" d="M58,949.12a1.66,1.66,0,1,1-3.32-.15,1.66,1.66,0,0,1,3.32.15" transform="translate(7.6 -897.79)"/><path class="cls-2" d="M48.52,956.63,46,953.79c-.2-.41,0-1.13.45-1.11l4.92.22c.51,0,.58.77.35,1.15l-2.82,2.6A.25.25,0,0,1,48.52,956.63Z" transform="translate(7.6 -897.79)"/><path class="cls-2" d="M55.84,971.52h0a60.05,60.05,0,0,1-13.56-1.65c-13.37-3.56-13-18.23-13-18.38.52-17.24,12.92-24.74,13-24.81a24.51,24.51,0,0,1,11.24-2.74,28.94,28.94,0,0,1,15.91,5c13,10.29,10.3,25.46,10.27,25.61C77.78,968.58,65.67,971.52,55.84,971.52ZM53.55,925a23.37,23.37,0,0,0-10.75,2.62c-.09,0-12,7.28-12.52,23.95,0,.58-.32,14,12.26,17.37a58.08,58.08,0,0,0,13.3,1.62c9.42,0,21-2.79,22.89-16.12,0-.17,2.62-14.75-9.88-24.64A28.61,28.61,0,0,0,53.55,925Z" transform="translate(7.6 -897.79)"/><path class="cls-1" d="M40.88,921.82S38.39,936.88,56.48,939c0,0,1.52-7.63,5.9-8.33,0,0,7.86-1.31,7.58-6.56,0,0,.08-2.43-1.52-3" transform="translate(7.6 -897.79)"/><path class="cls-2" d="M56.48,939.48h-.06c-6-.69-10.48-2.88-13.21-6.51a15.82,15.82,0,0,1-2.83-11.22.51.51,0,0,1,.58-.42.52.52,0,0,1,.42.59A15.06,15.06,0,0,0,44,932.36c2.49,3.3,6.54,5.34,12,6,.42-1.72,2.15-7.62,6.21-8.27.08,0,7.42-1.29,7.17-6,0-.06,0-2.11-1.18-2.52a.51.51,0,1,1,.33-1c1.93.66,1.86,3.35,1.86,3.47.3,5.6-7.67,7-8,7-4,.64-5.47,7.86-5.49,7.93A.51.51,0,0,1,56.48,939.48Z" transform="translate(7.6 -897.79)"/><path class="cls-5" d="M10.13,916s-1,4.3,3.26,5.13a4.29,4.29,0,0,0-4.48,3,3.93,3.93,0,0,0-3.56-3.83S10,920.37,10.13,916Z" transform="translate(7.6 -897.79)"/><path class="cls-2" d="M8.91,924.39H8.86a.26.26,0,0,1-.21-.25,3.67,3.67,0,0,0-3.32-3.58.26.26,0,0,1-.24-.27.26.26,0,0,1,.26-.25h0c.16,0,3.8,0,4.42-3.27a5,5,0,0,1,.09-.87.26.26,0,0,1,.52.06,6.1,6.1,0,0,1-.09.87,3.67,3.67,0,0,0,3.14,4,.26.26,0,0,1,.21.3.28.28,0,0,1-.3.22,1.32,1.32,0,0,0-.33,0,4.06,4.06,0,0,0-3.87,2.9A.26.26,0,0,1,8.91,924.39Zm-2.16-4A4.08,4.08,0,0,1,9,923.24a4.45,4.45,0,0,1,3-2.33,3.9,3.9,0,0,1-2.14-2.83A4.59,4.59,0,0,1,6.75,920.37Z" transform="translate(7.6 -897.79)"/><path class="cls-5" d="M-1.49,910.05s-.41,4.74,3.75,6c0,0-4-.7-5.29,4.28,0,0,.8-5.36-4.3-6.43C-7.33,913.93-1.55,914.59-1.49,910.05Z" transform="translate(7.6 -897.79)"/><path class="cls-2" d="M-3,920.62h-.06a.26.26,0,0,1-.2-.3c0-.21.69-5.13-4.11-6.13a.25.25,0,0,1-.2-.3.27.27,0,0,1,.29-.22s.28,0,.71,0c1.72,0,4.63-.44,4.82-3.38,0-.19,0-.29,0-.29a.26.26,0,0,1,.27-.24.27.27,0,0,1,.25.27,2.62,2.62,0,0,1,0,.28c0,1,.22,4.45,3.57,5.49a.26.26,0,0,1,.18.31.25.25,0,0,1-.3.2s-3.79-.62-5,4.08A.26.26,0,0,1-3,920.62Zm-2.72-6.43a5.52,5.52,0,0,1,3,4.62,4.87,4.87,0,0,1,3.79-3,5.64,5.64,0,0,1-2.66-4C-2.44,913.57-4.37,914.07-5.74,914.19Z" transform="translate(7.6 -897.79)"/><path class="cls-5" d="M24,931.47s-.72,3.28,2.5,3.92A3.28,3.28,0,0,0,23,937.72a3,3,0,0,0-2.71-2.93S23.86,934.84,24,931.47Z" transform="translate(7.6 -897.79)"/><path class="cls-2" d="M23,938h0a.26.26,0,0,1-.22-.25,2.73,2.73,0,0,0-2.48-2.68.26.26,0,0,1-.24-.27.27.27,0,0,1,.27-.25h0c.3,0,2.86-.07,3.32-2.44a4.46,4.46,0,0,1,.07-.68.26.26,0,0,1,.29-.2.27.27,0,0,1,.23.27,4.6,4.6,0,0,1-.07.66,2.74,2.74,0,0,0,2.35,3,.26.26,0,0,1-.09.52h-.24a3,3,0,0,0-2.9,2.17A.26.26,0,0,1,23,938Zm-1.46-3.12a3.11,3.11,0,0,1,1.57,2,3.44,3.44,0,0,1,2.1-1.64,3,3,0,0,1-1.48-2A3.6,3.6,0,0,1,21.57,934.86Z" transform="translate(7.6 -897.79)"/><path class="cls-5" d="M11.51,929.37S11.2,933,14.38,934c0,0-3.08-.54-4,3.26,0,0,.61-4.09-3.29-4.9C7.05,932.34,11.47,932.84,11.51,929.37Z" transform="translate(7.6 -897.79)"/><path class="cls-2" d="M10.34,937.51h-.05a.26.26,0,0,1-.21-.29c0-.16.52-3.86-3.09-4.62a.26.26,0,0,1-.2-.29.25.25,0,0,1,.29-.22s.22,0,.54,0c1.29,0,3.47-.33,3.62-2.53a2,2,0,0,1,0-.22.26.26,0,0,1,.28-.24.27.27,0,0,1,.25.27,1.48,1.48,0,0,0,0,.21c0,.78.16,3.35,2.68,4.14a.26.26,0,0,1-.12.51c-.05,0-2.84-.46-3.73,3.07A.28.28,0,0,1,10.34,937.51Zm-1.86-4.93a4.24,4.24,0,0,1,2.1,3.27,3.72,3.72,0,0,1,2.68-2.09A4.3,4.3,0,0,1,11.39,931,3.76,3.76,0,0,1,8.48,932.58Z" transform="translate(7.6 -897.79)"/><path class="cls-5" d="M37.82,944.42a2.2,2.2,0,0,0,1.73,2.72,2.27,2.27,0,0,0-2.38,1.62,2.1,2.1,0,0,0-1.89-2A2.43,2.43,0,0,0,37.82,944.42Z" transform="translate(7.6 -897.79)"/><path class="cls-2" d="M37.17,949h-.05a.28.28,0,0,1-.22-.25A1.81,1.81,0,0,0,35.26,947a.27.27,0,0,1,0-.53h0a2.19,2.19,0,0,0,2.23-1.62,3.31,3.31,0,0,1,.05-.48.27.27,0,0,1,.29-.21.28.28,0,0,1,.23.27,3.23,3.23,0,0,1,0,.47,1.8,1.8,0,0,0,1.57,2,.27.27,0,0,1,.21.3.27.27,0,0,1-.3.22h-.15a2,2,0,0,0-2,1.46A.25.25,0,0,1,37.17,949Zm-.81-2.22a2.23,2.23,0,0,1,.91,1.18,2.53,2.53,0,0,1,1.24-1,2.13,2.13,0,0,1-.87-1.16A2.55,2.55,0,0,1,36.36,946.8Z" transform="translate(7.6 -897.79)"/><path class="cls-5" d="M28.06,941.68s-.21,2.52,2,3.2c0,0-2.13-.37-2.8,2.27A3,3,0,0,0,25,943.74S28,944.09,28.06,941.68Z" transform="translate(7.6 -897.79)"/><path class="cls-2" d="M27.25,947.41H27.2a.27.27,0,0,1-.21-.3A2.71,2.71,0,0,0,24.91,944a.27.27,0,0,1-.21-.3.26.26,0,0,1,.29-.22,3.24,3.24,0,0,0,.36,0c.87,0,2.34-.22,2.45-1.69v-.15a.26.26,0,0,1,.52,0v.15a2.77,2.77,0,0,0,1.81,2.8.27.27,0,0,1,.18.31.25.25,0,0,1-.3.2h-.23c-.65,0-1.82.27-2.28,2.09A.26.26,0,0,1,27.25,947.41ZM26.19,944a3,3,0,0,1,1.26,2,2.65,2.65,0,0,1,1.63-1.25A3.08,3.08,0,0,1,27.94,943,2.56,2.56,0,0,1,26.19,944Z" transform="translate(7.6 -897.79)"/></svg>