<svg version="1.1" id="Layer_1" xmlns="http://www.w3.org/2000/svg" xmlns:xlink="http://www.w3.org/1999/xlink" x="0px" y="0px"
	 viewBox="0 0 439.57 476.57" style="enable-background:new 0 0 439.57 476.57;" xml:space="preserve">
<style type="text/css">
	.st0{fill:none;stroke:#1D4B82;stroke-width:3;stroke-miterlimit:10;}
	.st1{fill:none;stroke:#686267;stroke-width:2;stroke-miterlimit:10;}
	.st2{fill:#686267;}
	.st3{fill:#1D4B82;}
	.st4{fill:#B3B3B3;}
	.st5{fill:#F5C654;}
	.st6{fill:#F6C64D;}
	.st7{fill:#99C555;}
	.st8{fill:#EB9C44;}
	.st9{fill:#F4C269;}
	.st10{fill:#0067A5;}
	.st11{fill:#2A65A9;}
	.st12{fill:#FFFFFF;}
	.st13{fill:#152546;}
	.st14{fill:#E2755F;}
	.st15{fill:#992C29;}
	.st16{fill:#E89153;}
	.st17{fill:#010101;}
	.st18{fill:#F0CDA9;}
	.st19{fill:#446839;}
	.st20{fill:#E27E90;}
	.st21{fill:#F5D46E;}
	.st22{fill:#EEAA48;}
	.st23{fill:#EDE6C3;}
	.st24{fill:#7D2E40;}
	.st25{fill:#27366B;}
	.st26{fill:#E2724C;}
	.st27{fill:#062346;}
	.st28{fill:#DB486C;}
	.st29{fill:#BF423E;}
	.st30{fill:#AC3A36;}
	.st31{fill:#CC6562;}
	.st32{fill:#DF6C8F;}
	.st33{fill:#EFB059;}
	.st34{fill:#5386C2;}
	.st35{fill:#95C357;}
	.st36{fill:#8C6AA8;}
	.st37{fill:#737475;}
	.st38{fill:#C3D652;}
	.st39{fill:#FEE899;}
	.st40{fill:#3B252A;}
	.st41{fill:#6D3027;}
	.st42{fill:#7D2C3F;}
	.st43{fill:#EAEFF6;}
	.st44{fill:#050606;}
	.st45{fill:#AA312D;}
	.st46{fill:#CF3935;}
	.st47{fill:#704537;}
	.st48{fill:#DD5152;}
	.st49{fill:#D0E8EC;}
	.st50{fill:#D775A8;}
	.st51{fill:#EBA9B1;}
	.st52{fill:#445E84;}
	.st53{fill:#6E9B93;}
	.st54{fill:#74ABDB;}
	.st55{fill:#DF6D99;}
	.st56{fill:#F8DC61;}
	.st57{fill:#E4814C;}
	.st58{fill:#40954C;}
	.st59{fill:#363636;}
	.st60{fill:#191919;}
	.st61{fill:#2D2C39;}
	.st62{fill:#373645;}
	.st63{fill:#9B4551;}
	.st64{fill:#335F9A;}
	.st65{fill:#7EBE7F;}
	.st66{fill:#EAC574;}
	.st67{fill:#335A7F;}
	.st68{fill:none;stroke:#000000;stroke-width:1.7819;stroke-linecap:round;stroke-linejoin:round;stroke-miterlimit:10;}
	.st69{clip-path:url(#SVGID_00000146460496797974828090000015483911005822771350_);}
	.st70{fill:none;stroke:#000000;stroke-width:1.7317;stroke-linecap:round;stroke-linejoin:round;stroke-miterlimit:10;}
</style>
<g>
	<g>
		<g>
			<g>
				<path class="st10" d="M381.12,418.18c23.06-5.45,15.04-35.88,15.04-35.88c-3.65-9.7-5.03-11.24-5.03-11.24
					c-0.79,3.47-20.73,15.12-20.73,15.12c-15.2,7.49-11.72,29.44-11.72,29.44S362.83,422.52,381.12,418.18z"/>
				<path d="M369.81,420.81L369.81,420.81c-4.22,0-7.08-0.92-9.84-1.79c-0.66-0.21-1.31-0.43-1.98-0.62
					c-0.57-0.17-1.05-0.57-1.3-1.11c-0.09-0.19-8.45-18.79,12.46-31.82l20.73-16.04c0.49-0.38,1.13-0.52,1.73-0.36
					c0.61,0.15,1.11,0.55,1.38,1.12c0.05,0.1,1.28,2.77,4.92,12.41c0.21,0.63,4.66,13.98-1.47,24.94
					c-3.45,6.18-9.52,10.27-18.03,12.2C375.22,420.46,372.41,420.81,369.81,420.81z M360.09,414.76c0.38,0.11,0.75,0.24,1.12,0.35
					c2.59,0.83,5.03,1.61,8.6,1.61l0,0c2.29,0,4.8-0.32,7.7-0.98c7.32-1.65,12.48-5.07,15.34-10.18c5.24-9.33,1.25-21.45,1.2-21.57
					c-1.81-4.81-3.02-7.85-3.77-9.68l-18.8,14.53C355.72,398.68,358.9,411.41,360.09,414.76z"/>
				<path class="st9" d="M252.32,390.55c0,0-0.26-3.49,5.57-0.42c0,0,15.59,18.98,43.53,26.94c10.3,2.94,47.62,2.21,58.34-4.62
					c0,0,7.53-3.88,8.96-0.33c0,0,0.45,2.93-7.09,6.69c0,0-60.54,28.75-107.46-22.2C254.16,396.62,250.06,392.45,252.32,390.55"/>
				<path d="M321.35,429.08c-26.74,0-49.86-10.37-68.7-30.84c-0.5-0.5-3.2-3.4-3.05-6.19c0.06-1.06,0.48-1.99,1.25-2.69
					c0.5-0.59,2.15-2.27,4.51-2.27c1,0,2.5,0.32,4,1.84l0.73,0.76c12.29,12.88,27.03,21.6,43.82,25.92c4.88,1.27,10.2,1.9,15.82,1.9
					c10.83,0,22.88-2.23,37.93-7c0.42-0.17,5.21-1.98,8.35-1.98c2.34,0,3.32,1.01,3.74,1.85c0.5,0.67,1.32,2.07,0.9,3.94
					c-0.6,2.63-3.33,4.73-8.36,6.44C361.79,421.02,344.67,429.08,321.35,429.08z M255.36,391.21c-0.55,0-1.2,0.58-1.42,0.86
					c-0.08,0.11-0.19,0.22-0.3,0.31c-0.01,0.4,0.94,1.98,2,3.06c18.08,19.61,40.17,29.55,65.72,29.55c22.39,0,39.23-7.93,39.39-8.01
					c5.31-1.82,5.86-3.38,5.91-3.54c0.07-0.27-0.1-0.48-0.16-0.54c-0.05-0.08-0.12-0.15-0.18-0.24c-0.07-0.01-0.18-0.01-0.3-0.01
					c-2.02,0-5.73,1.26-7,1.75c-15.58,4.95-28.03,7.24-39.29,7.24c-5.97,0-11.64-0.69-16.85-2.03
					c-17.53-4.52-32.94-13.62-45.76-27.06l-0.69-0.7C256.03,391.42,255.67,391.21,255.36,391.21z"/>
			</g>
			<path class="st9" d="M280.9,284.88c0,0,51,28.02,38.2,103.35c0,0-1.83,7.72-4.67,15.04c0,0-10.96,28.64-9.34,36.76l-10.16,26.61
				h-24.77c0,0-9.16-4.07-9.77-11.98l0.44-31.48h-7.14l1.15,29.91c-0.61,7.92-11.51,11.63-11.51,11.63h-24.78l-10.16-26.61
				c1.62-8.12-9.34-34.84-9.34-34.84c-2.85-7.31-4.67-15.04-4.67-15.04C181.58,312.9,235,284.67,235,284.67
				S279.36,284.21,280.9,284.88"/>
			<path d="M296.34,468.69h-26.62l-0.4-0.18c-0.41-0.19-10.28-4.66-10.98-13.7l0.41-29.59h-2.93l1.08,27.77
				c-0.71,9.4-12.4,13.48-12.91,13.67l-0.65,0.1h-26.2l-10.86-28.48l0.12-0.58c1.23-6.17-6.25-26.39-9.23-33.66
				c-2.88-7.39-4.69-15.02-4.77-15.33c-12.92-76.07,41.1-105.57,41.66-105.86l0.44-0.24h0.49c0,0,14.99-0.15,27.85-0.15
				c17.67,0,18.28,0.26,18.88,0.53c0.7,0.36,52.31,29.69,39.41,105.59c-0.1,0.45-1.92,8.08-4.78,15.44
				c-2.99,7.79-10.47,29.42-9.24,35.61l0.12,0.57L296.34,468.69z M270.63,464.58h22.89l9.45-24.77c-1.13-9.06,8.43-34.35,9.54-37.27
				c2.76-7.1,4.58-14.7,4.6-14.77c11.89-70.04-33.06-98.63-36.93-100.96c-0.88-0.09-4.28-0.25-17.35-0.25
				c-11.42,0-24.52,0.11-27.28,0.15c-4.88,2.84-50.94,31.75-39.15,101.18l0,0c0.01,0,1.81,7.57,4.56,14.62
				c1.1,2.7,10.67,26.36,9.54,35.36l9.45,24.77h23c1.63-0.63,9.38-3.93,9.84-9.74l-1.24-31.8h11.34l-0.46,33.57
				C262.87,460.28,269.06,463.78,270.63,464.58z"/>
			<path class="st9" d="M214.01,439.73c0,0-11.97-3.1-20.1,4.35c0,0-14.08,15.45,11.84,22.8c0,0,44.55,7.58,48.81-12.12"/>
			<path class="st12" d="M213,440.68c0.02,0,13.68,6.23,16.11,25.86c0,0-26.99,1.68-33.85-5.42c0,0-7.03-5.86-3.34-12.76
				C193.88,444.71,198.72,438.51,213,440.68"/>
			<path class="st9" d="M301.38,441.66c0,0,10.9-3.52,19.03,3.92c0,0,9.68,9.15-1.02,20.18c0,0-4.67,2.7-9.75,3.05
				c0,0-44.54,7.58-48.8-12.12"/>
			<path class="st12" d="M302.39,442.61c-0.02,0.01-13.67,6.22-16.11,25.85c0,0,27,1.68,33.85-5.41c0,0,8.13-5.21,1.74-13.61
				C321.88,449.44,316.71,440.16,302.39,442.61"/>
			<path class="st3" d="M296.02,296.04c0,0,24.48,1.99,45.39,46.9l-19.75,7.11c0,0,2.43,18.07-1.93,33.31c0,0-80.5,15.42-125.9,0
				c-4.37-15.24-1.43-33.31-1.43-33.31l-19.75-7.11c19.9-47.52,47.9-48.02,47.9-48.02s34.76,30.29,66.44,1.06
				C286.99,295.98,292.98,295.63,296.02,296.04"/>
			<path d="M247.45,392.28c-21.88,0-39.87-2.36-53.47-6.98l-1.02-0.34l-0.3-1.03c-3.71-12.96-2.87-27.63-2.45-32.47l-20.28-7.3
				l0.84-2c20.17-48.2,48.54-49.26,49.75-49.28l0.93-0.01l0.63,0.69c0.1,0.12,11.3,12.22,30.23,12.22c10.79,0,22.09-3.88,33.55-11.5
				l0.46-0.3l0.55-0.02c0,0,2.44-0.15,5.02-0.15c1.85,0,3.33,0.07,4.41,0.21c0.95,0.07,25.8,2.59,46.98,48.08l0.95,2.03l-20.27,7.3
				c0.7,4.95,2.26,19.57-1.44,32.51l-0.35,1.22l-1.23,0.23C320.56,385.45,284.51,392.28,247.45,392.28z M196.32,381.77
				c13.06,4.25,30.25,6.41,51.13,6.41c32.79,0,64.8-5.4,71.45-6.6c3.68-14.36,0.77-30.99,0.74-31.16l-0.3-1.71l19.25-6.93
				c-19.83-41.13-42.51-43.67-42.74-43.7c-0.97-0.14-2.32-0.19-3.96-0.19c-1.74,0-3.41,0.06-4.24,0.1
				c-11.98,7.88-23.88,11.88-35.35,11.88l0,0c-18.18-0.01-29.61-9.94-32.55-12.83c-4.58,0.61-27.28,5.53-44.37,44.71l19.24,6.91
				l-0.19,1.63C194.41,350.47,192.51,367.33,196.32,381.77z"/>
			<path d="M223.46,470.7c-8.85,0-16.19-1.16-16.92-1.27c-8.76-1.11-16.04-6.23-18.04-12.75c-1.57-5.09,0.27-10.25,5.15-14.56
				c10.97-9.64,20.94-4.41,21.36-4.18c0.99,0.54,1.37,1.78,0.82,2.78c-0.54,1-1.77,1.36-2.77,0.83l0,0
				c-0.31-0.17-7.95-4.05-16.7,3.65c-3.65,3.22-5.02,6.76-3.93,10.27c1.51,4.92,7.57,9,14.71,9.89c0.48,0.07,41.63,6.55,45.44-11.04
				c0.24-1.1,1.33-1.81,2.44-1.56c1.11,0.24,1.81,1.32,1.57,2.43C253.78,468.06,236.87,470.7,223.46,470.7z"/>
			<path d="M291.93,472.59c-13.41,0-30.32-2.64-33.1-15.51c-0.24-1.11,0.46-2.19,1.57-2.43c1.12-0.23,2.2,0.45,2.44,1.56
				c3.16,14.6,33.82,12.94,45.36,11.05c7.23-0.91,13.27-4.99,14.79-9.91c1.07-3.51-0.29-7.06-3.94-10.27
				c-8.76-7.7-16.39-3.83-16.7-3.66c-1,0.53-2.24,0.16-2.77-0.84c-0.53-1-0.17-2.22,0.82-2.76c0.42-0.23,10.38-5.46,21.35,4.19
				c4.88,4.29,6.71,9.46,5.14,14.54c-2,6.53-9.28,11.66-18.12,12.78C308.08,471.44,300.77,472.59,291.93,472.59z"/>
			<path d="M257.53,425.18c-11.36,0-16.7-2.52-17-2.67c-1.02-0.49-1.44-1.72-0.94-2.73c0.49-1.02,1.72-1.45,2.73-0.96
				c0.17,0.07,9.67,4.37,30.61,0.87c1.12-0.17,2.17,0.58,2.36,1.68c0.19,1.12-0.58,2.18-1.69,2.37
				C267.29,424.79,261.96,425.18,257.53,425.18z"/>
			<g>
				<g>
					<polygon class="st27" points="243.41,360.47 232.71,359.7 233.38,350.61 231.09,350.45 230.44,359.53 219.71,358.74 
						221.72,331.25 232.44,332.03 231.83,340.37 234.11,340.54 234.71,332.21 245.41,332.98 					"/>
					<polygon class="st27" points="259.2,361.62 248.51,360.85 249.32,349.79 241.71,332.71 254.08,333.61 255.72,338.43 
						258.03,333.9 270.41,334.8 260.02,350.45 					"/>
					<path class="st27" d="M277.26,363.25c-0.4,0-0.8-0.01-1.23-0.04c-7.37-0.54-11.26-5.53-10.66-13.69l1.1-15l10.73,0.78
						l-1.12,15.39c-0.16,2,0.3,2.59,0.35,2.66c0.03,0.02,0.11,0.12,0.47,0.15c0.74,0,1.17-0.89,1.3-2.65l1.12-15.38l10.69,0.78
						l-1.09,15.06C288.36,358.9,284.11,363.25,277.26,363.25z"/>
				</g>
				<g>
					<path class="st12" d="M229.32,334.73l-0.6,8.33l8.08,0.59l0.6-8.33l4.9,0.36l-1.59,21.7l-4.89-0.36l0.66-9.08l-8.07-0.59
						l-0.66,9.09l-4.94-0.37l1.6-21.7L229.32,334.73z"/>
					<path class="st12" d="M251.62,358.17l0.65-8.89l-5.93-13.31l5.6,0.41l1.84,5.38c0.56,1.62,0.93,2.82,1.37,4.27l0.06,0.01
						c0.58-1.33,1.18-2.54,1.94-4.03l2.58-5.07l5.5,0.41l-8.06,12.12l-0.67,9.05L251.62,358.17z"/>
					<path class="st12" d="M274.09,337.98l-0.91,12.49c-0.28,3.74,1.01,5.74,3.51,5.92c2.57,0.19,4.13-1.51,4.4-5.34l0.92-12.48
						l4.88,0.35l-0.88,12.17c-0.49,6.7-4.1,9.63-9.77,9.22c-5.47-0.39-8.47-3.66-7.97-10.58l0.88-12.11L274.09,337.98z"/>
				</g>
			</g>
		</g>
		<g>
			<path class="st10" d="M197.13,77.71c0,0,9.13-50.91,77.16-45.41c0,0,56.17,7.14,69.26,1.85c0,0,22.81-9.72,22.35-28.12
				c0,0,37.48,24.92,26.04,76.55c0,0,41.09,22.85,40.02,66.12c0,0,4.61,42.85-28.08,69.51c0,0-1.01,3.46,4.59,2.93
				c0,0,18.57-2.5,20.75-9.21c0,0,10.48,46.6-41.73,77.04c0,0-51.57,22.42-121.97-15.82c0,0-66.97,32.32-118.5,7.69
				c0,0-49.74-23.11-23.73-77.25c0,0,7.55-13.83,17.5-18.46c0,0-37.13-27.38-21.59-70.92C119.21,114.2,149.7,49.78,197.13,77.71"/>
			<path d="M347.57,297.55c-27.18,0-54.81-7.44-82.12-22.12c-5.96,2.69-38.59,16.71-73.97,16.71c-16.96,0-32.21-3.19-45.34-9.46
				c-0.86-0.4-21.62-10.26-29.49-32.25c-5.14-14.34-3.52-30.4,4.81-47.73c0.33-0.62,6.72-12.19,15.73-17.93
				c-8.13-7.21-33.39-33.48-19.91-71.27c0.94-2,21.63-44.86,56.2-44.86c7.38,0,14.89,2,22.34,5.97
				c2.98-10.1,16.99-44.78,68.47-44.78c3.27,0,6.7,0.14,10.18,0.42c0.39,0.04,30.13,3.79,51.01,3.79c10.62,0,15.28-0.98,17.31-1.8
				c0.18-0.08,21.49-9.39,21.08-26.16c-0.03-0.76,0.38-1.48,1.05-1.86c0.67-0.36,1.5-0.33,2.13,0.1
				c0.39,0.25,37.81,25.83,27.22,77.24c7.13,4.47,40.73,27.63,39.75,67.18c0.04,0.17,4.26,43.12-27.85,70.24
				c0.35,0.13,1.09,0.21,2.12,0.12c7.09-0.97,17.76-4.04,19-7.81c0.28-0.88,1.12-1.47,2.04-1.41c0.93,0.04,1.7,0.69,1.9,1.6
				c0.11,0.48,10.18,48.41-42.7,79.26C387.68,291.14,372.6,297.55,347.57,297.55z M265.51,271.1c0.33,0,0.67,0.09,0.97,0.25
				c27,14.66,54.28,22.1,81.08,22.1c24.11,0,38.96-6.3,39.1-6.36c41.36-24.12,42.31-58.19,41.19-70.29
				c-5.74,4.34-16.52,6.02-19.12,6.37c-0.55,0.06-0.97,0.08-1.36,0.08c-2.23,0-3.85-0.65-4.8-1.93c-0.93-1.23-0.94-2.76-0.67-3.67
				c0.11-0.4,0.35-0.76,0.67-1.02c31.47-25.67,27.39-67.28,27.34-67.7c1.02-41.78-38.58-64.33-38.98-64.56
				c-0.79-0.44-1.19-1.35-1-2.24c9.1-41.07-13.82-64.91-22.22-72.08c-2.47,16.9-22.44,25.6-23.36,25.99
				c-3.54,1.43-9.7,2.12-18.88,2.12c-21.15,0-51.14-3.78-51.44-3.82c-3.27-0.27-6.58-0.4-9.75-0.4c-56.56,0-65.05,43.69-65.14,44.12
				c-0.12,0.66-0.55,1.23-1.16,1.51c-0.62,0.28-1.33,0.25-1.91-0.1c-7.58-4.47-15.2-6.74-22.61-6.74
				c-31.99,0-52.21,41.92-52.41,42.35c-14.76,41.36,19.49,67.31,20.96,68.4c0.58,0.43,0.89,1.14,0.82,1.85
				c-0.07,0.72-0.52,1.35-1.17,1.65c-9.21,4.29-16.5,17.46-16.58,17.6c-7.78,16.2-9.35,31.2-4.59,44.48
				c7.31,20.39,27.18,29.82,27.39,29.91c12.59,6.02,27.25,9.06,43.59,9.06c37.98,0,72.8-16.58,73.15-16.74
				C264.9,271.17,265.2,271.1,265.51,271.1z"/>
			<g>
				<path class="st9" d="M330.52,122.22c0,0,25.9,19.96,38.34,34.39c0,0,11.3-10.54,8.15-23.64c0,0-9.54-22.12-31.39-20.26
					C345.62,112.7,337.51,112.69,330.52,122.22"/>
				<path d="M368.86,158.68c-0.03,0-0.07-0.01-0.11-0.01c-0.55-0.04-1.07-0.3-1.44-0.71c-12.15-14.11-37.77-33.91-38.03-34.11
					c-0.89-0.68-1.06-1.94-0.4-2.83c7.49-10.23,16.38-10.35,16.75-10.35c0.76-0.07,1.68-0.11,2.58-0.11
					c21.12,0,30.31,20.73,30.7,21.6c0.04,0.11,0.08,0.21,0.11,0.34c3.39,14.1-8.24,25.16-8.75,25.63
					C369.88,158.47,369.38,158.68,368.86,158.68z M333.4,121.87c5.67,4.46,24.44,19.47,35.49,31.7c2.73-3.21,8.21-11,6.16-19.93
					c-0.88-1.87-10.07-20.47-29.27-18.88C345.37,114.77,339.27,114.93,333.4,121.87z"/>
				<path d="M366.96,132.58c-0.32,0-0.64-0.07-0.94-0.23c-10.95-5.69-22.67-0.14-22.78-0.09c-1.03,0.49-2.25,0.08-2.74-0.95
					c-0.5-1.02-0.07-2.24,0.94-2.74c0.55-0.27,13.65-6.52,26.47,0.14c1.01,0.51,1.4,1.76,0.87,2.76
					C368.41,132.19,367.7,132.58,366.96,132.58z"/>
			</g>
			<g>
				<path class="st9" d="M201.18,108.98c0,0-26.62,19.01-39.58,32.98c0,0-10.9-10.95-7.27-23.93c0,0,10.35-21.74,32.11-19.09
					C186.44,98.93,194.56,99.21,201.18,108.98"/>
				<path d="M161.6,144.01c-0.01,0-0.02,0-0.03,0c-0.58-0.01-1.13-0.26-1.51-0.7c-0.46-0.53-11.23-13.07-7.31-25.1
					c2.11-6.51,9.16-21.63,28.81-21.63c1.65,0,3.37,0.1,5.12,0.31l0,0c0.23,0,9.08,0.44,16.19,10.94c0.62,0.93,0.4,2.17-0.5,2.82
					c-0.26,0.19-26.6,19.06-39.26,32.7C162.71,143.77,162.18,144.01,161.6,144.01z M181.56,100.67c-16.35,0-22.62,11.8-24.91,18.81
					c-2.43,7.48,2.55,15.77,5.12,19.34c11.51-11.79,30.73-26.05,36.54-30.29c-5.61-7.15-11.69-7.53-11.96-7.54
					C184.61,100.77,183.04,100.67,181.56,100.67z"/>
				<path d="M189.07,118.8c-0.32,0-0.65-0.07-0.96-0.24c-0.12-0.06-11.62-6.03-22.76-0.75c-1.03,0.49-2.25,0.06-2.74-0.97
					c-0.48-1.02-0.04-2.25,0.97-2.74c13.04-6.19,25.91,0.55,26.45,0.84c0.99,0.53,1.37,1.77,0.84,2.77
					C190.51,118.41,189.8,118.8,189.07,118.8z"/>
			</g>
		</g>
		<path d="M322.01,354.46c-1.03,0-1.92-0.78-2.03-1.82c-0.01-0.09-1.11-9.9-3.53-14.45c-0.54-1-0.16-2.24,0.84-2.77
			c0.99-0.53,2.25-0.15,2.78,0.85c2.79,5.25,3.93,15.49,3.99,15.93c0.11,1.12-0.69,2.13-1.82,2.25
			C322.16,354.46,322.09,354.46,322.01,354.46z"/>
		<g>
			<path class="st27" d="M310.45,303.35c0,0,28.43,33.54,14.85,75.83c0,0-12.72,16.72-40.64,13.38c0,0,14.14-55.68-12.83-82.29
				c0,0,15.06-14.17,27.46-17.46C299.29,292.81,307.39,299.2,310.45,303.35"/>
			<path d="M291.9,395.45c-2.43,0-4.95-0.15-7.48-0.45c-0.58-0.07-1.11-0.39-1.44-0.88c-0.34-0.49-0.45-1.1-0.3-1.66
				c0.15-0.55,13.54-54.86-12.28-80.33c-0.4-0.4-0.62-0.93-0.61-1.49c0-0.56,0.24-1.1,0.65-1.46c0.63-0.59,15.58-14.56,28.33-17.95
				c0.62-0.17,1.29-0.04,1.8,0.36c0.34,0.28,8.35,6.62,11.54,10.94c0.21,0.23,28.91,34.81,15.16,77.68
				c-0.08,0.21-0.18,0.42-0.32,0.61C326.47,381.43,315.53,395.45,291.9,395.45z M287.19,391.16c1.59,0.13,3.17,0.2,4.71,0.2
				c19.94,0,30.04-10.96,31.57-12.76c12.8-40.56-14.3-73.18-14.57-73.51c-2.38-3.22-7.96-7.89-10.06-9.61
				c-9.3,2.89-20.11,11.83-24.05,15.31C297.58,335.5,289.55,380.36,287.19,391.16z"/>
			<path class="st38" d="M278.34,318.46c0,0,59.25-14.51,33.2-31.94c0,0-22.25,5.34-39.71,23.76L278.34,318.46z"/>
			<path d="M278.34,320.92c-0.62,0-1.21-0.28-1.61-0.77l-6.51-8.19c-0.64-0.8-0.59-1.95,0.11-2.68
				c17.68-18.64,39.78-24.12,40.72-24.34c0.56-0.14,1.14-0.03,1.62,0.29c5.68,3.8,8.17,7.93,7.4,12.29
				c-2.38,13.45-37.27,22.37-41.25,23.35C278.67,320.91,278.5,320.92,278.34,320.92z M274.55,310.83l4.58,5.73
				c14.06-3.61,35.51-11.83,36.91-19.77c0.43-2.44-1.2-5.01-4.88-7.64C307.06,290.33,289.23,296.06,274.55,310.83z"/>
		</g>
		<path d="M192.4,354.46c-0.08,0-0.15,0-0.23-0.01c-1.13-0.13-1.93-1.14-1.81-2.25c0.05-0.44,1.2-10.69,3.98-15.93
			c0.53-1,1.77-1.37,2.78-0.85c0.99,0.53,1.37,1.78,0.84,2.77c-2.42,4.55-3.52,14.36-3.53,14.45
			C194.32,353.69,193.44,354.46,192.4,354.46z"/>
		<g>
			<path class="st9" d="M181.84,346.62c0,0,1.92,2.76,4.64,4.5c0,0,17.44,10.92,11.84,26.54c0,0-6.68,14.16-25.43,5.47
				c0,0-14.25-9.85-10.89-26.22C161.99,356.91,160.88,307.07,181.84,346.62z"/>
			<path d="M184.3,387.87c-3.75,0-7.85-1.05-12.2-3.13c-0.65-0.3-15.93-7.84-11.9-28c-0.06-2.84-0.16-20.35,4.88-25.51
				c1.06-1.08,2.34-1.65,3.71-1.65c4.12,0,8.77,5.15,14.63,16.2l0,0c0.01,0,1.72,2.35,4.02,3.83c0.18,0.1,18.58,11.88,12.56,28.66
				C199.77,378.79,195.52,387.87,184.3,387.87z M168.79,333.16c-0.25,0-0.64,0.06-1.15,0.58c-3.11,3.18-4.02,15.89-3.86,23.13
				c0.01,0.13-0.01,0.27-0.03,0.41c-3.61,17.58,9.34,23.98,9.89,24.24c3.87,1.84,7.45,2.78,10.66,2.78c8.93,0,12.35-7.3,12.38-7.38
				c4.98-13.92-10.5-23.88-11.16-24.3c-3-1.91-5.06-4.85-5.15-4.98C173.41,334.55,169.95,333.16,168.79,333.16z"/>
			<path class="st27" d="M163.34,349.58l-2.01,7.79c0,0,6.71,13.25,26.81,9.37l0.28-13.79C188.43,352.95,171.3,357.83,163.34,349.58
				"/>
			<path class="st12" d="M216.17,292.06c0,0-49.66-6.79-64.61,27.43c0,0-10.08,29.59,30.31,34.91c0,0,6.51-43.29,29.66-57.23
				L216.17,292.06"/>
			<path d="M181.49,369.45c-15.56,0-21.12-10.61-21.35-11.07l-0.23-0.47l1.33-12.68l2.72,3.44l0,0c0.01,0,0.59,0.56,2.19,1.23
				c4.44,1.86,9.02,2.81,13.61,2.81c5.12,0,8.42-1.21,8.45-1.22l2.46-0.92l-0.36,17.85l-1.41,0.28
				C186.33,369.19,183.84,369.45,181.49,369.45z M163.58,357.19c1.12,1.81,6.14,8.68,17.91,8.68c1.69,0,3.47-0.14,5.31-0.44
				l0.2-9.89c-1.69,0.36-4.18,0.76-7.25,0.76c-5.07,0-10.12-1.03-15-3.08c-0.26-0.11-0.5-0.21-0.73-0.33L163.58,357.19z"/>
			<path d="M183.77,356.3l-1.66-0.13c-14.41-1.12-24.37-5.89-29.61-14.19c-5.76-9.16-3.76-19.75-2.6-22.73
				c9.75-25.23,38.89-28.99,55.39-28.99c7.44,0,12.5,0.74,12.71,0.77l3.74,0.57l-9.27,8.36c-22.17,13.34-28.39,54.29-28.45,54.7
				L183.77,356.3z M205.29,293.84c-15.58,0-43.06,3.46-52.06,26.7c-0.8,2.08-2.77,11.49,2.3,19.54c4.4,6.99,12.88,11.15,25.22,12.39
				c1.42-8.12,8.6-42.62,29.71-55.48l3.11-2.82C211.46,293.99,208.61,293.84,205.29,293.84z"/>
		</g>
		<path class="st27" d="M204.15,302.9c0,0-27.2,32.3-16.47,75.13c0,0,8.92,14.51,34.48,12.37c0,0-8.69-56.34,16.91-81.79
			c0,0-8.7-9.11-26.01-15.8C213.06,292.81,207.11,298.89,204.15,302.9"/>
		<path d="M217.12,393.08L217.12,393.08c-22.59,0-30.85-13.02-31.19-13.57c-0.11-0.17-0.2-0.38-0.25-0.58
			c-10.84-43.33,16.62-76.61,16.9-76.94c2.92-3.98,8.76-9.96,9.01-10.22c0.57-0.59,1.44-0.78,2.2-0.48
			c17.53,6.78,26.39,15.91,26.76,16.3c0.77,0.82,0.76,2.09-0.04,2.87c-24.6,24.43-16.41,79.48-16.33,80.03
			c0.08,0.57-0.07,1.13-0.42,1.57c-0.35,0.45-0.87,0.74-1.44,0.78C220.52,393.01,218.78,393.08,217.12,393.08z M189.59,377.6
			c1.18,1.7,8.73,11.38,27.52,11.38h0.01c0.88,0,1.79-0.03,2.71-0.06c-1.33-10.67-5.47-56.06,16.33-79.82
			c-2.98-2.63-10.56-8.62-22.58-13.47c-1.78,1.86-5.63,5.99-7.77,8.9C205.46,304.95,179.48,336.51,189.59,377.6z"/>
		<path class="st38" d="M239.07,308.61c-17.46-18.41-39.7-23.75-39.7-23.75c-26.05,17.43,33.19,31.94,33.19,31.94L239.07,308.61z"/>
		<path d="M233.35,319.51l-1.28-0.31c-3.98-0.97-38.86-9.89-41.24-23.35c-0.77-4.35,1.72-8.49,7.4-12.28l0.74-0.5l0.87,0.2
			c0.93,0.23,23.04,5.7,40.71,24.35l1.23,1.28L233.35,319.51z M199.75,287.5c-3.68,2.63-5.32,5.2-4.89,7.64
			c1.4,7.93,22.86,16.15,36.92,19.75l4.56-5.73C221.66,294.4,203.84,288.66,199.75,287.5z"/>
		<g>
			<path class="st9" d="M328.67,346.53c0,0-2.19,3.17-5.29,5.16c0,0-19.91,12.59-13.52,30.57c0,0,7.63,16.31,29.05,6.28
				c0,0,16.25-11.33,12.41-30.18C351.32,358.37,352.61,301,328.67,346.53z"/>
			<path d="M325.85,393.76L325.85,393.76c-12.66,0-17.44-10.32-17.64-10.75c-6.85-19.26,13.99-32.71,14.2-32.85
				c2.74-1.76,4.76-4.64,4.78-4.67c6.53-12.45,11.77-18.35,16.39-18.35c1.49,0,2.89,0.63,4.04,1.82c5.73,5.85,5.59,26.07,5.53,29.25
				c4.58,23.04-12.72,31.63-13.45,31.98C334.76,392.56,330.1,393.76,325.85,393.76z M343.58,330.77c-1.38,0-5.43,1.62-13.3,16.6
				c-0.21,0.32-2.54,3.68-5.92,5.85c-0.77,0.49-18.62,12.06-12.79,28.44c0.1,0.21,4.02,8.48,14.28,8.48l0,0
				c3.7,0,7.82-1.07,12.27-3.22c0.64-0.3,15.6-7.75,11.43-28.19c-0.02-0.12-0.03-0.26-0.02-0.4c0.12-6.05-0.42-22.67-4.49-26.84
				C344.39,330.85,343.9,330.77,343.58,330.77z"/>
			<path class="st27" d="M322.41,349.02l-3.7,8.12c0,0,9.6,18.82,30.55,13.6l8.64-8.97C357.9,361.78,332.15,364.84,322.41,349.02"/>
			<path class="st12" d="M320.6,295.15c0,0,38.79-6.89,55.54,25.28c0,0,13.94,21.52-15.91,41.16c0,0-32.55,5.9-37.97-15.32
				c0,0,5.03-20.44-10.05-20.98c0,0-14.51-12.98,1.4-23.84C313.6,301.46,317.55,295.52,320.6,295.15"/>
			<path d="M342.1,373.9c-16.9,0-24.68-14.87-25-15.51l-0.4-0.79l6.2-12.79l2.6,5.55c6.24,9.07,16.18,11.03,23.39,11.03l0,0
				c4.93,0,8.53-0.92,8.57-0.93l6.24-1.62l-13.49,13.96l-0.5,0.13C347.11,373.57,344.56,373.9,342.1,373.9z M320.75,357.51
				c1.73,2.88,8.57,12.77,21.34,12.77c2.01,0,4.09-0.25,6.22-0.74l4.53-4.7c-1.19,0.11-2.53,0.18-3.97,0.18l0,0
				c-7.87,0-18.65-2.11-25.92-12.02L320.75,357.51z"/>
			<path d="M351.07,364.42c-9.68,0-26.52-2.25-30.56-17.26l-0.12-0.45l0.11-0.45c0.02-0.11,2.46-10.33-1.54-15.62
				c-1.51-1.99-3.73-2.99-6.82-3.11l-0.64-0.02l-0.48-0.42c-0.31-0.28-7.82-6.92-7.34-15.12c0.28-4.59,2.96-8.65,7.97-12.08
				c0.09-0.11,6.87-6.1,12.21-6.93c0.09-0.02,2.81-0.48,7.07-0.48c12.13,0,34.34,3.58,46.81,27.54c0.12,0.21,12.05,23.4-18.83,43.7
				l-0.33,0.23l-0.4,0.06C358.04,364.01,355.19,364.42,351.07,364.42z M324.12,346.63c3.62,12.31,18.4,14.16,26.94,14.16
				c3,0,5.31-0.23,6.19-0.34c27.6-18.35,17.7-37.94,17.27-38.76c-11.61-22.28-32.3-25.6-43.61-25.6c-3.93,0-6.46,0.43-6.49,0.43
				c-3.6,0.56-8.85,4.68-10.57,6.22c-4.22,2.9-6.37,6.02-6.57,9.44c-0.33,5.45,4.22,10.35,5.66,11.77c3.85,0.28,6.84,1.8,8.89,4.51
				C326.37,334.44,324.62,344.32,324.12,346.63z"/>
		</g>
		<g>
			<path class="st9" d="M208.54,122.76c0,0-49.74,29.27-51.81,98.78c0,0-2.02,58.24,51.17,72.39c0,0,135.68,36.16,149.11-60.41
				c0,0,11.49-60.36-40.78-101.68C316.22,131.84,264.92,93.99,208.54,122.76"/>
			<path class="st12" d="M253.16,229.16c-6.07-0.32-11.56,2.24-15.06,6.41c-2.81-4.5-7.82-7.64-13.68-7.95
				c-9.36-0.5-17.33,6.35-17.81,15.3c-0.48,8.95,6.72,16.61,16.07,17.11c5.52,0.3,10.5-2.01,13.8-5.75
				c2.93,4.99,8.38,8.54,14.85,8.9c9.96,0.53,18.44-6.65,18.94-16.05C270.78,237.74,263.11,229.7,253.16,229.16z"/>
			<path d="M223.09,208.66c-0.16,3.71-3.3,6.58-7.02,6.41c-3.72-0.16-6.58-3.32-6.42-7.02c0.17-3.71,3.32-6.58,7.04-6.42
				C220.39,201.8,223.26,204.95,223.09,208.66"/>
			<path d="M271.05,211.9c-0.18,3.71-3.32,6.59-7.03,6.42c-3.71-0.17-6.58-3.32-6.42-7.02c0.18-3.73,3.33-6.58,7.03-6.43
				C268.34,205.03,271.21,208.18,271.05,211.9"/>
			<path d="M232.64,242.29c-0.61-0.68-10.38-11.5-10.38-11.5c-0.81-1.65-0.01-4.59,1.81-4.51c1.83,0.09,17.89,0.83,19.93,0.93
				c2.05,0.09,2.35,3.08,1.4,4.65l-11.4,10.51C234.01,242.36,233.26,242.98,232.64,242.29z"/>
			<path d="M262.28,302.61L262.28,302.61c-29.43,0-54.67-6.64-54.92-6.7c-54.14-14.4-52.7-73.84-52.69-74.44
				c2.08-69.83,52.31-100.18,52.82-100.48c14.43-7.36,29.71-11.08,45.5-11.08c36.54,0,63.32,19.45,64.43,20.28
				c52.71,41.66,41.71,103.1,41.6,103.71C351.13,290.67,302.06,302.61,262.28,302.61z M253,114.01c-15.14,0-29.79,3.56-43.54,10.58
				c-0.37,0.22-48.66,29.51-50.68,97.02c-0.08,2.32-1.32,56.78,49.65,70.33c0.25,0.06,24.99,6.57,53.86,6.57
				c38.15,0,85.19-11.33,92.7-65.28c0.13-0.69,10.62-59.74-40.04-99.8C314.74,133.3,288.15,114.01,253,114.01z"/>
		</g>
		<g>
			<path class="st10" d="M201.68,101.34c0,0-10.08,60.98,63.16,69.44c0,0,6.19-30.9,23.89-33.74c0,0,31.86-5.28,30.73-26.54
				c0,0,0.32-9.84-6.16-12.05"/>
			<path d="M264.84,172.82c-0.08,0-0.16,0-0.24-0.01c-24.42-2.82-42.41-11.69-53.47-26.36c-15.39-20.43-11.64-44.43-11.47-45.44
				c0.18-1.13,1.25-1.87,2.36-1.7c1.11,0.19,1.87,1.25,1.69,2.36c-0.03,0.23-3.61,23.36,10.74,42.36
				c10.09,13.36,26.5,21.59,48.82,24.5c1.69-6.97,8.69-30.87,25.15-33.51c0.29-0.05,30.04-5.24,29.01-24.41
				c0-0.26,0.19-8.53-4.77-10.22c-1.08-0.36-1.65-1.52-1.28-2.61c0.36-1.06,1.52-1.64,2.61-1.28c7.83,2.66,7.57,13.59,7.55,14.06
				c1.21,22.67-31.07,28.27-32.45,28.5c-16.12,2.59-22.16,31.83-22.22,32.12C266.66,172.15,265.81,172.82,264.84,172.82z"/>
		</g>
		<g>
			<path class="st39" d="M77.16,77.56c0,0-3.85,17.41,13.21,20.78c0,0-12.72-1.89-18.16,12.35c0,0-0.36-14.28-14.39-15.52
				C57.81,95.17,76.58,95.45,77.16,77.56z"/>
			<path d="M72.2,111.75c-0.06,0-0.12,0-0.18-0.01c-0.5-0.09-0.87-0.52-0.88-1.02c-0.02-0.54-0.53-13.33-13.43-14.49
				c-0.57-0.05-0.99-0.54-0.97-1.11c0.03-0.57,0.5-1.02,1.06-1.02c0.01,0,0.01,0,0.02,0l0,0c0.68,0,15.41-0.15,17.9-13.23
				c0.07-2.08,0.37-3.48,0.39-3.54c0.11-0.54,0.62-0.91,1.17-0.83c0.54,0.07,0.94,0.54,0.93,1.1c-0.04,1.21-0.16,2.39-0.37,3.5
				c-0.12,5.12,1.39,13.96,12.73,16.21c0.57,0.11,0.94,0.65,0.84,1.21c-0.09,0.58-0.63,0.96-1.19,0.88
				c-0.04-0.02-0.54-0.08-1.35-0.08c-3.35,0-11.62,1.14-15.67,11.74C73.04,111.48,72.64,111.75,72.2,111.75z M63.49,95.46
				c5.97,2.57,8.31,8,9.21,11.62c3.41-6.23,8.34-8.58,12.15-9.44c-5.6-2.74-7.84-7.46-8.67-11.48
				C73.23,91.96,67.71,94.42,63.49,95.46z"/>
		</g>
		<g>
			<path class="st39" d="M30.09,53.67c0,0-1.64,19.18,15.17,24.42c0,0-16.3-2.84-21.39,17.31c0,0,3.23-21.69-17.45-26.02
				C6.43,69.38,29.87,72.03,30.09,53.67z"/>
			<path d="M23.88,96.45c-0.07,0-0.14,0-0.21-0.01c-0.55-0.12-0.93-0.65-0.84-1.21c0.12-0.84,2.81-20.74-16.62-24.81
				c-0.56-0.12-0.92-0.65-0.82-1.21c0.08-0.55,0.59-0.95,1.16-0.89c0.03,0,1.15,0.13,2.89,0.13c6.95,0,18.74-1.78,19.54-13.72
				c0.01-0.74,0.05-1.15,0.05-1.15c0.05-0.57,0.5-0.96,1.12-0.97c0.56,0.02,1.01,0.5,1.01,1.07c-0.01,0.39-0.02,0.77-0.05,1.13
				C31.07,58.99,32,72.84,45.59,77.07c0.53,0.18,0.85,0.72,0.72,1.27c-0.13,0.54-0.65,0.9-1.21,0.8
				c-0.22-0.02-15.38-2.53-20.19,16.52C24.78,96.14,24.36,96.45,23.88,96.45z M12.87,70.42c8.97,4.37,11.47,12.83,12.07,18.72
				c4.1-8.79,10.78-11.37,15.36-12.03c-7.03-4-9.72-10.79-10.74-16.05C26.23,67.93,18.43,69.92,12.87,70.42z"/>
		</g>
		<g>
			<path class="st39" d="M133.18,140.4c0,0-2.93,13.3,10.09,15.89c0,0-9.72-1.45-13.88,9.43c0,0-0.26-10.9-10.99-11.86
				C118.41,153.86,132.74,154.06,133.18,140.4z"/>
			<path d="M129.4,166.77c-0.06,0-0.12,0-0.18-0.01c-0.5-0.09-0.87-0.51-0.89-1.02c-0.01-0.4-0.4-9.96-10.03-10.82
				c-0.57-0.05-0.99-0.54-0.96-1.11c0.03-0.58,0.49-1.01,1.06-1.01c0.01,0,0.01,0,0.02,0l0,0c1.2,0,11.57-0.29,13.42-9.89
				c0.06-1.6,0.29-2.68,0.3-2.73c0.11-0.54,0.63-0.91,1.16-0.82c0.55,0.06,0.96,0.53,0.93,1.08c-0.03,0.93-0.13,1.84-0.28,2.69
				c-0.09,3.84,1.04,10.44,9.51,12.1c0.57,0.12,0.94,0.66,0.85,1.23c-0.11,0.56-0.62,0.94-1.2,0.87c-0.04,0-0.4-0.05-0.99-0.05
				c-2.52,0-8.7,0.85-11.74,8.81C130.24,166.51,129.84,166.77,129.4,166.77z M123.48,154.14c3.9,1.94,5.62,5.5,6.38,8.15
				c2.44-4.11,5.75-5.89,8.5-6.64c-3.65-2.01-5.3-5.15-6.02-7.97C130.16,151.47,126.5,153.28,123.48,154.14z"/>
		</g>
		<g>
			<path class="st39" d="M82.75,131.91c0,0-1.25,14.64,11.6,18.65c0,0-12.46-2.18-16.34,13.22c0,0,2.46-16.57-13.33-19.88
				C64.68,143.91,82.58,145.94,82.75,131.91z"/>
			<path d="M78.01,164.86c-0.07,0-0.14-0.02-0.21-0.03c-0.55-0.11-0.93-0.64-0.84-1.19c0.09-0.64,2.1-15.62-12.51-18.68
				c-0.55-0.11-0.93-0.64-0.82-1.21c0.09-0.57,0.59-0.97,1.16-0.89c0.03,0,0.88,0.1,2.18,0.1c5.23,0,14.08-1.33,14.69-10.24
				c0-0.57,0.04-0.88,0.04-0.88c0.04-0.58,0.49-0.97,1.11-0.97c0.56,0.02,1.01,0.49,1.01,1.07c-0.01,0.3-0.02,0.58-0.04,0.86
				c-0.03,3.17,0.67,13.58,10.88,16.76c0.54,0.17,0.85,0.72,0.72,1.26c-0.13,0.55-0.66,0.89-1.21,0.8
				c-0.2-0.04-11.53-1.85-15.13,12.43C78.92,164.52,78.48,164.86,78.01,164.86z M70.46,144.88c5.95,3.25,7.91,8.94,8.51,13.26
				c2.98-5.81,7.5-7.82,10.86-8.46c-4.72-2.95-6.74-7.57-7.59-11.38C79.69,142.83,74.51,144.38,70.46,144.88z"/>
		</g>
		<g>
			<path class="st39" d="M189.28,192.83c0,0-2.05,9.24,7.01,11.03c0,0-6.75-1-9.64,6.56c0,0-0.19-7.58-7.65-8.25
				C179,202.18,188.97,202.34,189.28,192.83z"/>
			<path d="M186.65,211.48c-0.06,0-0.12,0-0.18-0.01c-0.5-0.09-0.87-0.5-0.89-1.02c-0.01-0.26-0.28-6.64-6.68-7.21
				c-0.57-0.05-1-0.54-0.97-1.11c0.03-0.57,0.54-0.97,1.08-1.02l0,0c0.81,0,7.76-0.17,9.01-6.58c0.03-1.13,0.21-1.89,0.21-1.93
				c0.12-0.54,0.64-0.92,1.18-0.83c0.54,0.06,0.94,0.53,0.92,1.09c-0.02,0.67-0.09,1.31-0.2,1.89c-0.06,3.12,0.99,7.01,6.36,8.07
				c0.57,0.11,0.94,0.65,0.84,1.22c-0.1,0.57-0.62,0.96-1.2,0.87c-0.04,0-0.26-0.02-0.63-0.02c-1.69,0-5.83,0.57-7.87,5.92
				C187.48,211.22,187.08,211.48,186.65,211.48z M183.36,202.48c1.95,1.21,3.1,3.03,3.72,4.77c1.49-2.19,3.34-3.33,5-3.91
				c-1.94-1.27-2.96-3.01-3.5-4.68C187.23,200.61,185.29,201.81,183.36,202.48z"/>
		</g>
		<g>
			<path class="st39" d="M149.78,181.75c0,0-0.87,10.19,8.06,12.96c0,0-8.65-1.49-11.35,9.2c0,0,1.7-11.53-9.28-13.82
				C137.21,190.09,149.66,191.5,149.78,181.75z"/>
			<path d="M146.49,204.97c-0.07,0-0.15-0.01-0.22-0.02c-0.55-0.11-0.93-0.63-0.84-1.19c0.06-0.43,1.42-10.56-8.44-12.62
				c-0.55-0.12-0.92-0.65-0.83-1.21c0.09-0.57,0.61-0.97,1.17-0.89c0.03,0,0.6,0.06,1.48,0.06c3.52,0,9.48-0.88,9.89-6.81
				c0.01-0.4,0.02-0.63,0.02-0.63c0.06-0.57,0.48-1.03,1.12-0.97c0.57,0.02,1.02,0.49,1.01,1.07c0,0.21-0.01,0.4-0.01,0.61
				c-0.02,2.15,0.46,9.2,7.34,11.33c0.53,0.17,0.84,0.72,0.72,1.27c-0.13,0.54-0.66,0.91-1.22,0.8c-0.04,0-0.38-0.06-0.93-0.06
				c-2.65,0-7.37,1.1-9.23,8.46C147.4,204.65,146.96,204.97,146.49,204.97z M142.18,190.95c3.27,2.13,4.61,5.34,5.14,8.06
				c1.89-3.15,4.46-4.51,6.58-5.06c-2.63-1.9-3.95-4.57-4.6-6.94C147.57,189.46,144.69,190.52,142.18,190.95z"/>
		</g>
	</g>
	<g>
		<path d="M226.24,189.01c-0.71,0-1.37-0.43-1.62-1.14l0,0c0,0-1.04-2.12-5.93-4.24c-4.09-1.76-8.89-0.65-8.93-0.64
			c-0.93,0.23-1.87-0.35-2.1-1.29c-0.23-0.93,0.35-1.86,1.28-2.08c0.24-0.07,5.95-1.42,11.13,0.82c6.38,2.77,7.68,5.88,7.81,6.23
			c0.33,0.89-0.13,1.89-1.03,2.23C226.65,188.97,226.44,189.01,226.24,189.01z"/>
		<path d="M256.4,190.91c-0.33,0-0.67-0.09-0.96-0.3c-0.77-0.52-0.99-1.55-0.49-2.33c0.2-0.32,2.13-3.07,8.95-4.41
			c5.54-1.08,10.83,1.47,11.05,1.58c0.86,0.42,1.21,1.46,0.79,2.31c-0.42,0.86-1.45,1.21-2.31,0.81c-0.05-0.02-4.5-2.14-8.87-1.28
			c-5.27,1.03-6.71,2.9-6.73,2.91C257.49,190.66,256.95,190.91,256.4,190.91z"/>
	</g>
</g>
</svg>
