<?xml version="1.0" encoding="utf-8"?>
<!-- Generator: Adobe Illustrator 25.4.1, SVG Export Plug-In . SVG Version: 6.00 Build 0)  -->
<svg version="1.1" id="레이어_1" xmlns="http://www.w3.org/2000/svg" xmlns:xlink="http://www.w3.org/1999/xlink" x="0px"
	 y="0px" viewBox="0 0 2000 2000" style="enable-background:new 0 0 2000 2000;" xml:space="preserve">
<style type="text/css">
	.st0{fill:#FFEDDA;}
	.st1{fill:#004892;}
	.st2{fill:#221F20;}
	.st3{fill:#F8C158;}
	.st4{fill:#FFFFFF;}
	.st5{fill:#0071BC;}
	.st6{fill:#FF2442;}
</style>
<g>
	<g>
		<g>
			<path class="st1" d="M519.12,590.14c0,0,38-305.18,443.68-294.15c0,0,335.82,24.51,411.8-11.03c0,0,132.37-64.96,123.79-174.04
				c0,0,230.43,136.04,178.95,446.13c0,0,251.24,122.56,258.6,379.95c0,0,41.06,252.87-144.63,421.63c0,0-4.9,20.83,28.19,15.93
				c0,0,109.45-20.83,120.31-61.28c0,0,77.03,273.33-223.25,470.64c0,0-299.06,149.53-729.25-55.17c0,0-387.31,213.27-701.07,83.35
				c0,0-302.72-121.35-165.45-451.04c0,0,40.44-84.56,98.05-115.21c0,0-229.19-150.74-150.75-414.26
				C68.09,831.6,228.64,439.39,519.12,590.14"/>
		</g>
		<g>
			<g>
				<path class="st2" d="M512.18,1865.34c-84.17,0-161.64-14.39-230.24-42.8c-5.24-2.1-131.3-53.85-184.91-181.56
					c-34.98-83.29-30.49-178.94,13.36-284.22c1.78-3.76,36.35-75.17,88.42-111.74c-49.33-38.97-209.89-186.98-141.53-416.65
					c5.11-12.61,118.68-284,331.62-284c39.83,0,80.8,9.79,122.02,29.15c14.72-62.95,93.9-298.56,452.19-288.81
					c1.63,0.12,114.27,8.24,222.25,8.24c120.31,0,166.73-9.9,184.48-18.2c1.04-0.52,125.19-62.89,117.32-162.95
					c-0.33-4.18,1.71-8.21,5.28-10.44c3.56-2.23,8.08-2.28,11.7-0.14c2.34,1.37,232.49,141.16,185.62,449.65
					c42.33,23.32,250.34,149.8,257.46,385.14c2.32,16.05,33.93,260.85-143.91,426.92c1.65,0.8,6.79,1.62,14.56,0.49
					c42.11-8.03,104.86-29.91,111.07-53.06c1.32-4.92,5.74-8.33,10.84-8.34c0.02,0,0.04,0,0.06,0c5.05,0,9.48,3.32,10.85,8.21
					c0.79,2.8,75.75,283.57-227.91,483.12c-0.37,0.25-0.75,0.47-1.16,0.65c-4.4,2.21-109.83,53.9-286.11,53.9
					c-146.96,0-297.63-35.81-447.89-106.51C952.09,1759.85,739.23,1865.34,512.18,1865.34z M388.9,566.94
					c-197.76,0-309.27,266.24-310.38,268.94c-74.68,251.12,137.46,394.59,146.52,400.57c3.32,2.18,5.24,5.98,5.06,9.95
					c-0.2,3.97-2.47,7.54-5.98,9.43c-53.59,28.51-92.78,109.32-93.17,110.13c-41.15,98.89-45.69,188.58-13.23,266.08
					c49.82,118.96,171.5,169.13,172.71,169.62c65.97,27.31,140.55,41.13,221.73,41.13c241.65,0,467.44-122.65,469.71-123.89
					c3.17-1.76,7-1.86,10.27-0.31c148.9,70.83,298.07,106.78,443.32,106.75c164.2,0,267.13-47.26,275.51-51.26
					c240.72-158.55,233.67-363.41,222.91-433.4c-33.46,29.14-102.73,43.14-112.28,44.97c-4.56,0.68-8.18,0.94-11.35,0.94
					c-11.51,0-20.05-3.41-25.38-10.16c-5.32-6.69-5.77-15.16-4.53-20.4c0.51-2.21,1.71-4.22,3.39-5.74
					c178.8-162.51,141.48-409.02,141.08-411.49c-0.09-0.47-0.13-0.99-0.15-1.48c-7.06-247.37-249.82-368.94-252.28-370.14
					c-4.47-2.18-6.99-7.07-6.16-11.98c41.38-249.35-105.4-384.11-156.6-422.78c-8.13,101.61-124.75,160.05-130.05,162.65
					c-29.03,13.58-94.31,20.42-194.22,20.42c-108.82,0-222.25-8.19-223.38-8.27c-6.58-0.18-13.56-0.28-20.44-0.28
					c-371.48,0-410.88,281.73-411.22,284.57c-0.46,3.66-2.69,6.86-5.96,8.59c-3.28,1.7-7.17,1.73-10.44,0.03
					C471.43,578.1,429.38,566.94,388.9,566.94z"/>
			</g>
		</g>
	</g>
	<g>
		<g>
			<path class="st3" d="M621.29,731.9c0,0-160.14,110.31-238.58,192.05c0,0-63.74-66.2-40.85-143.01c0,0,63.72-128.28,192.83-110.31
				C534.68,670.63,582.88,673.09,621.29,731.9"/>
		</g>
		<g>
			<path class="st2" d="M382.71,935.22c-2.54,0-5.09-0.86-7.17-2.57c-0.78-0.65-76.88-64.83-44.31-155.52
				c16.15-44.93,59.5-120.31,168.51-120.31c11.67,0,23.94,0.89,36.5,2.65c1.22,0.02,53.43,3.38,94.5,66.28
				c3.34,5.11,1.99,11.98-3.04,15.43c-1.6,1.11-160.11,110.61-236.85,190.58C388.64,934.05,385.69,935.22,382.71,935.22z
				 M499.74,679.38c-90.43,0-130,57.3-147.27,105.37c-21.54,59.92,13.83,106.21,30.01,123.33
				c69.81-69.84,188.79-154.9,223.11-178.98c-33.05-44.19-69.91-47.1-71.56-47.22C521.61,680.2,510.37,679.38,499.74,679.38z"/>
		</g>
		<g>
			<path class="st2" d="M548.55,788.12c-1.84,0-3.71-0.45-5.44-1.4c-0.69-0.38-68.87-37.28-136.14-6.78
				c-5.65,2.59-12.35,0.07-14.92-5.61c-2.57-5.67-0.07-12.36,5.61-14.93c77.79-35.27,153.23,5.84,156.41,7.61
				c5.43,3.03,7.37,9.87,4.35,15.31C556.35,786.03,552.52,788.12,548.55,788.12z"/>
		</g>
	</g>
	<g>
		<g>
			<path class="st3" d="M1425.27,731.9c0,0,160.15,110.31,238.59,192.05c0,0,63.73-66.2,40.85-143.01
				c0,0-63.74-128.28-192.83-110.31C1511.88,670.63,1463.68,673.09,1425.27,731.9"/>
		</g>
		<g>
			<path class="st2" d="M1663.86,935.22c-3.06,0-6-1.24-8.13-3.45c-76.76-79.99-235.26-189.47-236.85-190.58
				c-5.03-3.45-6.39-10.33-3.06-15.43c41.08-62.9,93.28-66.26,95.48-66.39c11.04-1.58,22.87-2.42,34.21-2.42
				c105.02,0,159.32,72.68,170.2,121.55c16.05,72.16-40.41,148.97-42.83,152.21c-1.99,2.64-5.04,4.3-8.35,4.5
				C1664.32,935.22,1664.09,935.22,1663.86,935.22z M1440.97,729.1c34.01,23.86,151.14,107.59,221.18,177.05
				c14-22.43,42.13-75.29,31.54-122.76c-6.43-28.9-45.59-103.89-148.18-103.89c-10.3,0-21.1,0.78-32.09,2.3
				C1510.93,681.99,1474.01,684.91,1440.97,729.1z"/>
		</g>
		<g>
			<path class="st2" d="M1631.99,788.13c-2.72,0-5.47-0.98-7.63-2.98c-66.13-60.82-127.76-11.84-130.35-9.74
				c-4.81,3.93-11.93,3.22-15.86-1.59c-3.94-4.83-3.21-11.93,1.59-15.87c0.79-0.65,79.51-63.33,159.89,10.61
				c4.58,4.22,4.87,11.35,0.66,15.94C1638.07,786.91,1635.04,788.13,1631.99,788.13z"/>
		</g>
	</g>
	<g>
		<g>
			<path class="st3" d="M698.88,848.75c0,0-285.99,189.59-276.18,603.02c0,0,6.54,346.45,326.84,413.45
				c0,0,817.09,171.6,866.11-406.07c0,0,49.03-361.99-274.55-590.77C1341.11,868.38,1024.48,660,698.88,848.75"/>
		</g>
		<g>
			<path class="st2" d="M1007.95,1900.34C1007.94,1900.34,1007.96,1900.34,1007.95,1900.34c-144.42,0-259.59-23.83-260.74-24.09
				c-325.31-68.03-335.73-420.71-335.79-424.24c-9.85-414.84,278.3-610.72,281.22-612.65c92.85-53.84,193.19-80.96,298.81-80.96
				c200.72,0,349.61,96.46,355.84,100.58c325.7,230.26,280.02,598,279.53,601.69C1596,1823.93,1273.26,1900.34,1007.95,1900.34z
				 M991.46,780.94c-101.6,0-198.13,26.09-286.92,77.6c-2.24,1.5-280.11,190.97-270.57,592.98c0.28,13.83,10.3,338.34,317.88,402.66
				c1.13,0.25,114.15,23.6,256.11,23.6c255.86,0,567.03-72.79,596.46-419.59c0.54-4.1,44.13-358.61-269.82-580.61
				C1333.44,876.85,1185.18,780.94,991.46,780.94z"/>
		</g>
		<g>
			<g>
				<g>
					<path class="st1" d="M700.51,739.67c0,0-40.44,365.25,397.09,392.21c0,0,26.97-185.48,131.14-207.93
						c0,0,187.53-41.5,174.05-167.45c0,0-1.22-58.5-40.44-69.53"/>
				</g>
				<g>
					<path class="st2" d="M1097.62,1143.18c-0.23,0-0.47-0.03-0.7-0.03c-145.65-8.97-255.07-55.8-325.23-139.16
						c-97.67-116.09-83.06-259.5-82.38-265.54c0.69-6.18,6.23-10.61,12.44-9.97c6.18,0.69,10.66,6.26,9.97,12.44
						c-0.16,1.39-14.07,140.24,77.42,248.74c64.42,76.44,165.01,120.27,299.06,130.31c7.58-40.71,41.21-186.11,138.19-207.04
						c1.7-0.38,177.45-40.82,165.19-155.21c-0.07-1.45-1.65-51.26-32.27-59.89c-6.01-1.67-9.49-7.91-7.81-13.9
						c1.68-5.99,7.95-9.46,13.91-7.79c46.72,13.13,48.61,77.41,48.66,80.14c14.33,133.47-174.82,176.89-182.88,178.66
						c-95.34,20.58-122.17,196.8-122.42,198.57C1107.96,1139.09,1103.18,1143.18,1097.62,1143.18z"/>
				</g>
			</g>
			<g>
				<g>
					<path class="st2" d="M916.22,1449.33c0,21.88-17.74,39.62-39.63,39.62c-21.88,0-39.62-17.74-39.62-39.62
						c0-21.89,17.74-39.62,39.62-39.62C898.48,1409.71,916.22,1427.44,916.22,1449.33"/>
				</g>
				<g>
					<path class="st2" d="M1200.43,1449.33c0,21.88-17.74,39.62-39.63,39.62c-21.89,0-39.62-17.74-39.62-39.62
						c0-21.89,17.74-39.62,39.62-39.62C1182.69,1409.71,1200.43,1427.44,1200.43,1449.33"/>
				</g>
				<g>
					<path class="st4" d="M1141.7,1788.63c62.61-6.75,114.02-50.37,114.02-112.47c0-62.09-51.04-112.42-114.02-112.42
						c-49.2,0-91.94,24.92-107.94,67.98l-9.09,0.43c-15.94-43.14-55.66-68.41-104.93-68.41c-62.98,0-114.03,50.33-114.03,112.42
						c0,62.11,51.05,112.47,114.03,112.47c48.55,0,55.71-2.67,108.01-12.06C1027.75,1776.57,1094.28,1793.71,1141.7,1788.63"/>
				</g>
				<g>
					<path class="st2" d="M1020.85,1636.83c-3.82-3.81-64.25-64.89-64.25-64.89c-5.2-9.46-1.34-27.02,9.48-27.02
						c10.82,0,105.49,0,117.6,0c12.1,0,14.67,17.55,9.48,27.02l-64.26,64.89C1028.89,1636.83,1024.66,1640.69,1020.85,1636.83z"/>
				</g>
				<g>
					<path class="st2" d="M925.21,1291.3c-4.07,0-7.99-2.18-10.01-6.05l0,0c-0.02,0-8.46-12.77-41.73-22.32
						c-27.8-7.99-57.79,3.17-58.09,3.31c-5.77,2.18-12.33-0.72-14.55-6.54c-2.21-5.8,0.67-12.31,6.49-14.53
						c1.48-0.59,37.18-14.07,72.38-3.91c43.41,12.49,54.38,31.43,55.49,33.57c2.89,5.52,0.75,12.31-4.77,15.2
						C928.75,1290.9,926.97,1291.3,925.21,1291.3z"/>
				</g>
				<g>
					<path class="st2" d="M1113.77,1291.08c-1.86,0-3.73-0.46-5.44-1.43c-5.28-3-7.34-9.46-4.52-14.82
						c1.11-2.14,12.08-21.08,55.47-33.57c35.2-10.13,70.9,3.32,72.4,3.91c5.81,2.21,8.7,8.72,6.47,14.53
						c-2.21,5.82-8.74,8.72-14.55,6.54c-0.28-0.13-30.27-11.28-58.09-3.31c-33.55,9.64-41.84,22.56-41.92,22.69
						C1121.46,1289.1,1117.65,1291.08,1113.77,1291.08z"/>
				</g>
			</g>
		</g>
	</g>
</g>
</svg>
